<?xml version="1.0" encoding="UTF-8" standalone="no"?>
<svg xmlns:svg="http://www.w3.org/2000/svg" xmlns="http://www.w3.org/2000/svg" xmlns:xlink="http://www.w3.org/1999/xlink" x="0px" y="0px" width="450.7417" height="88.105995" viewBox="0 0 450.74171 88.105993" xml:space="preserve">
  <g transform="translate(-9.8101305e-4,-2.142811e-6)">
    <path d="m 33.697,16.478 c 2.469,-2.662 5.445,-3.993 8.938,-3.993 3.185,0 5.24,1.127 6.475,3.274 1.334,2.555 1.438,6.961 0.1,12.999 H 67.086 C 69.445,18.013 68.218,10.231 63.697,5.626 60.1,1.846 54.243,0 46.025,0 37.295,0 30.002,2.045 24.144,6.344 16.75,11.766 11.505,20.568 8.12,32.848 L 2.16,54.951 c -3.39,12.382 -2.773,21.185 1.746,26.504 3.594,4.304 9.76,6.344 18.495,6.344 8.835,0 16.125,-2.041 21.876,-6.135 C 51.572,76.34 56.815,67.542 60.205,54.951 L 64.414,39.192 H 34.726 l -3.287,12.586 h 11.812 l -0.82,3.172 c -2.056,7.675 -4.625,13.106 -7.705,16.482 -2.568,2.551 -5.55,3.886 -8.939,3.886 -3.491,0 -5.852,-1.335 -6.883,-3.886 -1.333,-3.376 -1.026,-8.807 1.031,-16.482 l 6.057,-22.103 c 2.055,-7.669 4.621,-13.1 7.705,-16.369 z" fill="#f47821"/>
    <path d="m 123.174,54.951 c 3.287,-12.382 2.774,-21.287 -1.746,-26.708 -3.495,-4.192 -9.656,-6.344 -18.391,-6.344 -8.729,0 -15.92,2.152 -21.776,6.344 -7.395,5.421 -12.738,14.326 -16.125,26.708 -3.29,12.382 -2.673,21.185 1.847,26.504 3.493,4.304 9.654,6.344 18.389,6.344 8.937,0 16.127,-2.041 21.776,-6.135 7.293,-5.324 12.639,-14.122 16.026,-26.713 z m -40.168,0 c 2.056,-7.772 4.624,-13.199 7.708,-16.58 2.569,-2.555 5.548,-3.886 9.038,-3.886 3.393,0 5.651,1.331 6.779,3.886 1.232,3.381 0.926,8.807 -1.128,16.58 -2.057,7.675 -4.625,13.106 -7.706,16.482 -2.57,2.551 -5.545,3.886 -9.038,3.886 -3.493,0 -5.653,-1.335 -6.782,-3.886 -1.334,-3.376 -0.926,-8.807 1.129,-16.482 z" fill="#f47821"/>
    <g/>
  </g>
  <g transform="translate(-37.942285,-2.142811e-6)">
    <path d="m 390.987,42.569 c 3.494,0 6.066,0.923 7.705,2.662 1.746,1.841 2.567,4.396 2.567,8.079 h -19.104 c -5.752,0 -10.378,1.54 -13.869,4.508 -2.979,2.56 -4.83,5.936 -5.752,9.822 -0.31,1.433 -0.517,2.968 -0.517,4.508 0,3.682 1.127,6.85 3.289,9.517 1.644,2.045 3.903,3.575 6.676,4.707 2.877,1.122 5.959,1.734 9.246,1.734 7.603,0 13.767,-2.249 18.387,-6.548 4.626,-4.294 7.912,-10.949 9.763,-19.849 2.153,-9.725 1.438,-16.885 -2.365,-21.389 -3.182,-3.886 -8.112,-5.732 -15.002,-5.732 -4.618,0 -8.624,1.02 -12.113,3.274 -3.602,2.152 -5.755,4.814 -6.371,7.986 l -0.417,1.836 h 9.146 l 0.31,-1.327 c 0.101,-0.816 0.924,-1.637 2.365,-2.351 1.746,-0.923 3.797,-1.437 6.056,-1.437 z m -13.97,36.535 c -1.642,-0.612 -2.873,-1.54 -3.797,-2.764 -1.236,-1.535 -1.955,-3.376 -1.955,-5.421 0,-0.821 0.207,-1.739 0.412,-2.56 0.307,-2.045 1.126,-3.585 2.467,-4.809 1.744,-1.54 4.004,-2.356 6.983,-2.356 h 19.108 c -1.748,7.471 -4.522,12.688 -8.114,15.661 -2.672,2.25 -5.856,3.27 -9.761,3.27 -1.952,-0.001 -3.698,-0.307 -5.343,-1.021 z" fill="#7f7f7f"/>
    <path d="m 443.483,43.798 1.644,-7.981 H 433.42 l 3.697,-16.779 h -9.249 l -3.596,16.779 h -9.14 l -1.647,7.981 h 9.144 l -4.933,22.516 c -0.51,2.759 -0.817,5.12 -0.817,7.16 0,3.891 0.925,6.961 2.771,9.215 2.263,2.861 5.959,4.294 10.892,4.294 h 1.336 l 1.641,-8.088 h -1.953 c -1.95,0 -3.384,-0.51 -4.21,-1.632 -0.922,-1.025 -1.231,-2.56 -1.231,-4.61 0,-1.53 0.202,-3.27 0.616,-5.11 l 5.033,-23.745 h 11.709 z" fill="#7f7f7f"/>
    <path d="m 450.264,69.073 c 0,-0.301 0.103,-1.433 0.207,-3.478 h 36.262 l 0.822,-3.887 c 0.821,-3.381 1.129,-6.451 1.129,-9.414 0,-5.115 -1.233,-9.113 -3.494,-11.975 -3.182,-3.886 -8.109,-5.732 -14.993,-5.732 -15,0 -24.353,8.802 -28.05,26.402 -2.053,9.721 -1.333,16.886 2.471,21.389 2.979,3.891 7.907,5.728 14.893,5.728 4.519,0 8.629,-1.122 12.223,-3.27 3.597,-2.147 5.755,-4.712 6.367,-7.879 l 0.416,-1.948 h -9.45 l -0.205,1.331 c -0.212,0.923 -1.029,1.739 -2.468,2.458 -1.643,0.821 -3.594,1.326 -5.858,1.326 -3.592,0 -6.164,-1.02 -7.91,-2.861 -1.641,-1.846 -2.362,-4.61 -2.362,-8.19 z m 18.801,-26.504 c 3.696,0 6.471,1.025 8.114,3.07 1.539,1.846 2.36,4.503 2.36,7.986 0,0.816 -0.205,2.147 -0.407,4.09 h -27.021 c 1.644,-4.912 3.903,-8.598 6.676,-11.154 2.881,-2.661 6.374,-3.992 10.278,-3.992 z" fill="#7f7f7f"/>
    <path d="m 289.29,19.645 c -1.234,-1.225 -2.673,-1.739 -4.315,-1.739 -1.749,0 -3.188,0.515 -4.419,1.739 -1.233,1.127 -1.748,2.56 -1.748,4.299 0,1.637 0.515,3.172 1.748,4.299 1.231,1.229 2.67,1.739 4.419,1.739 1.643,0 3.081,-0.51 4.315,-1.739 1.126,-1.127 1.741,-2.662 1.741,-4.299 0,-1.739 -0.615,-3.172 -1.741,-4.299 z" fill="#7f7f7f"/>
    <path d="m 271.723,66.313 c -0.617,2.759 -0.93,5.217 -0.93,7.369 0,3.682 1.029,6.752 2.88,9.006 2.258,2.861 6.062,4.294 10.989,4.294 h 1.336 l 1.751,-8.088 h -2.056 c -2.056,0 -3.599,-0.51 -4.418,-1.632 -1.438,-1.739 -1.541,-5.013 -0.617,-9.72 l 6.778,-31.726 h -17.975 l -1.75,7.981 h 8.733 l -4.721,22.516 z" fill="#7f7f7f"/>
    <path d="m 227.344,41.34 c -4.729,4.508 -8.013,11.158 -9.968,20.058 l -5.444,25.586 h 9.146 l 5.34,-24.974 c 2.774,-12.893 8.836,-19.441 18.187,-19.441 3.595,0 6.364,1.025 8.008,3.07 2.468,3.075 2.777,8.288 1.233,15.759 l -5.442,25.586 h 9.037 l 5.446,-24.974 c 2.054,-9.818 1.336,-17.187 -2.364,-21.792 -3.082,-3.784 -8.011,-5.63 -14.896,-5.63 -7.499,-10e-4 -13.561,2.253 -18.283,6.752 z" fill="#7f7f7f"/>
    <path d="m 306.546,56.078 c 0.929,-4.299 2.362,-7.573 4.42,-9.924 2.153,-2.356 4.519,-3.585 7.495,-3.585 2.158,0 3.699,0.612 4.726,1.943 1.746,2.05 2.058,5.63 1.029,10.852 l -6.884,31.62 h 9.248 l 6.674,-30.905 c 0.822,-4.401 2.263,-7.675 4.316,-10.026 2.051,-2.254 4.521,-3.483 7.5,-3.483 2.157,0 3.801,0.719 4.827,1.943 1.646,2.05 2.056,5.63 0.922,10.852 l -6.778,31.62 h 9.041 l 6.576,-30.395 c 1.641,-7.981 1.028,-13.913 -1.951,-17.6 -2.364,-2.968 -6.163,-4.401 -11.403,-4.401 -2.777,0 -5.447,0.719 -8.222,2.05 -2.668,1.428 -4.93,3.274 -6.778,5.63 -0.924,-2.356 -2.463,-4.202 -4.623,-5.63 -2.158,-1.331 -4.521,-2.05 -7.295,-2.05 -11.606,0 -19.004,7.063 -22.086,21.389 l -6.676,31.007 h 9.245 l 6.677,-30.907 z" fill="#7f7f7f"/>
    <path d="m 208.747,25.377 c -1.953,-5.013 -5.957,-7.471 -11.916,-7.471 -5.856,0 -10.582,2.254 -14.586,7.068 -2.263,2.759 -4.832,7.564 -7.709,14.321 l -19.823,47.689 h 10.069 l 8.729,-22.516 h 27.328 l -0.619,22.516 h 9.763 l 0.512,-47.072 c 0,-6.762 -0.619,-11.669 -1.748,-14.535 z m -12.942,0.408 c 1.336,0 2.362,0.408 3.079,1.127 1.029,1.025 1.749,2.764 2.059,5.115 0.31,1.744 0.409,4.095 0.409,7.165 l -0.207,17.192 h -24.346 l 5.754,-13.815 c 2.258,-5.426 4.004,-9.21 5.444,-11.357 2.465,-3.581 5.035,-5.427 7.808,-5.427 z" fill="#7f7f7f"/>
  </g>
</svg>
